#!OML:ASF F:\VICON\USERDATA\INSTALL\rory3\rory3.ASF
:FULLY-SPECIFIED
:DEGREES
337
root 0.287605 18.0299 21.3002 -0.602402 -6.27023 -7.36288
lowerback 7.85143 2.61506 6.00411
upperback 1.38573 4.02955 1.81963
thorax -2.67675 1.95778 -1.87055
lowerneck -15.3645 -2.94817 -0.773697
upperneck 15.8308 -3.89593 0.262211
head 7.41528 -1.88364 -0.207923
rclavicle 1.11816e-016 -2.64384e-014
rhumerus -22.802 -12.4075 -80.9965
rradius 30.4479
rwrist 1.21918
rhand -16.8483 20.2087
rfingers 7.12502
rthumb 9.38168 -9.56247
lclavicle 1.11816e-016 -2.64384e-014
lhumerus -37.4731 1.45168 83.1011
lradius 30.373
lwrist -1.11565
lhand -21.3595 33.032
lfingers 7.12502
lthumb 5.02724 62.9524
rfemur 3.1444 8.68395 34.9358
rtibia 25.0028
rfoot -19.9199 -1.64792
rtoes 7.07914
lfemur -29.4206 -2.16872 -9.50487
ltibia 28.9673
lfoot -10.2535 8.60967
ltoes -6.78692
338
root 0.294819 18.0225 21.4605 -0.581938 -6.33831 -7.41172
lowerback 7.74073 2.69871 6.12792
upperback 1.37291 4.14076 1.75785
thorax -2.60669 2.01385 -2.0062
lowerneck -15.4632 -2.92001 -0.858176
upperneck 16.1624 -3.87227 0.427712
head 7.54668 -1.85941 -0.14246
rclavicle -2.62147e-014 1.16289e-014
rhumerus -22.7229 -12.5829 -81.0146
rradius 30.4396
rwrist 1.31106
rhand -16.63 20.3102
rfingers 7.12502
rthumb 9.59238 -9.45144
lclavicle -2.62147e-014 1.16289e-014
lhumerus -37.6028 0.712064 83.5451
lradius 29.3612
lwrist 2.79047
lhand -26.8184 23.8586
lfingers 7.12502
lthumb -0.244704 53.8382
rfemur 4.01922 8.73667 34.9849
rtibia 24.5392
rfoot -19.946 -1.53816
rtoes 7.28624
lfemur -29.3536 -3.14884 -9.05128
ltibia 27.1976
lfoot -10.3912 9.38931
ltoes -6.70807
339
root 0.307029 18.0184 21.6231 -0.376448 -6.36302 -7.46985
lowerback 7.49391 2.74995 6.31205
upperback 1.27685 4.20639 1.67466
thorax -2.54432 2.04516 -2.18772
lowerneck -15.3574 -2.92039 -0.80796
upperneck 16.2209 -3.89661 0.481238
head 7.54777 -1.86293 -0.134671
rclavicle -3.04638e-014 -8.34896e-015
rhumerus -22.7168 -12.7468 -81.0969
rradius 30.3467
rwrist 1.49819
rhand -16.583 20.759
rfingers 7.12502
rthumb 9.63768 -9.00057
lclavicle -3.04638e-014 -8.34896e-015
lhumerus -37.709 1.52747 82.7887
lradius 30.0007
lwrist -1.71644
lhand -20.9735 33.4106
lfingers 7.12502
lthumb 5.39995 63.3218
rfemur 4.53751 8.68439 34.9462
rtibia 24.22
rfoot -19.8773 -1.22855
rtoes 7.54669
lfemur -29.4715 -4.17865 -8.56978
ltibia 25.444
lfoot -10.3797 10.2569
ltoes -6.87315
340
root 0.316648 18.008 21.7717 -0.129895 -6.45986 -7.53627
lowerback 7.34518 2.82645 6.36825
upperback 1.24087 4.30128 1.64436
thorax -2.48455 2.09312 -2.24976
lowerneck -15.5007 -2.9318 -0.890585
upperneck 16.1763 -3.9282 0.676255
head 7.56432 -1.86375 -0.0627315
rclavicle 1.42131e-014 1.63003e-014
rhumerus -22.5616 -12.6323 -81.2224
rradius 30.4464
rwrist 1.3094
rhand -16.5885 20.5551
rfingers 7.12502
rthumb 9.63236 -9.20465
lclavicle 1.42131e-014 1.63003e-014
lhumerus -37.7863 1.26983 82.9537
lradius 29.6958
lwrist -0.257778
lhand -23.9558 28.9356
lfingers 7.12502
lthumb 2.52003 58.9004
rfemur 4.87075 8.76185 34.9499
rtibia 24.008
rfoot -19.7553 -0.944807
rtoes 7.36771
lfemur -29.66 -5.09536 -8.04841
ltibia 23.7442
lfoot -10.2369 11.1261
ltoes -6.90892
341
root 0.324278 17.9979 21.9191 -0.0481051 -6.547 -7.5988
lowerback 7.33651 2.88082 6.36162
upperback 1.22941 4.37345 1.66334
thorax -2.48765 2.12874 -2.23211
lowerneck -15.5562 -2.9043 -0.949114
upperneck 16.2312 -3.88798 0.733508
head 7.59426 -1.84198 -0.0313813
rclavicle 2.73702e-014 -8.74653e-015
rhumerus -22.4206 -12.5398 -81.3037
rradius 30.5373
rwrist 1.28966
rhand -16.5818 20.2734
rfingers 7.12502
rthumb 9.6389 -9.48603
lclavicle 2.73702e-014 -8.74653e-015
lhumerus -37.9043 1.49046 82.9078
lradius 29.6643
lwrist -0.297884
lhand -23.9426 29.6794
lfingers 7.12502
lthumb 2.53278 59.6441
rfemur 5.33288 8.91251 35.0118
rtibia 23.8781
rfoot -19.5904 -0.808838
rtoes 6.37106
lfemur -29.7035 -6.20782 -7.46143
ltibia 22.2332
lfoot -10.112 12.2154
ltoes -6.48199
342
root 0.335001 17.9894 22.0819 -0.0759287 -6.65845 -7.69019
lowerback 7.19289 2.91679 6.39379
upperback 1.34495 4.40793 1.74863
thorax -2.289 2.15436 -2.15127
lowerneck -15.5481 -2.86777 -1.03877
upperneck 16.1743 -3.79653 0.633725
head 7.57305 -1.81394 -0.0387345
rclavicle -6.28657e-014 -1.70955e-014
rhumerus -22.1851 -12.4511 -81.2877
rradius 30.5656
rwrist 1.3108
rhand -16.6637 20.4162
rfingers 7.12502
rthumb 9.55983 -9.34695
lclavicle -6.28657e-014 -1.70955e-014
lhumerus -37.8222 2.11234 82.7571
lradius 29.4323
lwrist -0.802571
lhand -23.1598 31.1961
lfingers 7.12502
lthumb 3.28875 61.1505
rfemur 5.96373 9.0436 35.0811
rtibia 23.7987
rfoot -19.4673 -0.766204
rtoes 4.18391
lfemur -29.5856 -7.14163 -6.9384
ltibia 20.9574
lfoot -10.1518 13.1299
ltoes -6.54337
